# Blender 4.0.0
# www.blender.org
mtllib sign.mtl
o Cube.012
v -0.503580 0.098330 0.062235
v -0.503580 0.610797 0.062235
v -0.503580 0.098330 -0.062235
v -0.503580 0.610797 -0.062235
v 0.503580 0.098330 0.062235
v 0.503580 0.610797 0.062235
v 0.503580 0.098330 -0.062235
v 0.503580 0.610797 -0.062235
v -0.064278 -0.610797 0.062235
v 0.064278 -0.610797 0.062235
v 0.064278 -0.610797 -0.062235
v -0.064278 -0.610797 -0.062235
v -0.064278 0.098330 -0.062235
v 0.064278 0.098330 -0.062235
v 0.064278 0.610797 -0.062235
v -0.064278 0.610797 -0.062235
v 0.064278 0.098330 0.062235
v -0.064278 0.098330 0.062235
v -0.064278 0.610797 0.062235
v 0.064278 0.610797 0.062235
vn -1.0000 -0.0000 -0.0000
vn -0.0000 1.0000 -0.0000
vn 1.0000 -0.0000 -0.0000
vn -0.0000 -1.0000 -0.0000
vn -0.0000 -0.0000 1.0000
vn -0.0000 -0.0000 -1.0000
vt 0.375000 0.000000
vt 0.625000 0.000000
vt 0.625000 0.250000
vt 0.375000 0.250000
vt 0.625000 0.500000
vt 0.734045 0.500000
vt 0.734045 0.750000
vt 0.625000 0.750000
vt 0.375000 0.500000
vt 0.375000 0.750000
vt 0.265955 0.500000
vt 0.265955 0.750000
vt 0.234045 0.750000
vt 0.234045 0.500000
vt 0.125000 0.500000
vt 0.125000 0.750000
vt 0.625000 0.859045
vt 0.375000 0.859045
vt 0.765955 0.500000
vt 0.875000 0.500000
vt 0.875000 0.750000
vt 0.765955 0.750000
vt 0.375000 0.390955
vt 0.625000 0.390955
vt 0.375000 0.890955
vt 0.625000 0.890955
vt 0.625000 1.000000
vt 0.375000 1.000000
vt 0.375000 0.359045
vt 0.625000 0.359045
s 0
usemtl Material
f 1/1/1 2/2/1 4/3/1 3/4/1
f 8/5/2 15/6/2 20/7/2 6/8/2
f 7/9/3 8/5/3 6/8/3 5/10/3
f 11/11/4 10/12/4 9/13/4 12/14/4
f 3/15/4 13/14/4 18/13/4 1/16/4
f 5/10/5 6/8/5 20/17/5 17/18/5
f 16/19/2 4/20/2 2/21/2 19/22/2
f 14/23/6 15/24/6 8/5/6 7/9/6
f 18/25/5 19/26/5 2/27/5 1/28/5
f 14/11/4 7/9/4 5/10/4 17/12/4
f 16/19/2 19/22/2 20/7/2 15/6/2
f 17/18/5 18/25/5 9/25/5 10/18/5
f 19/26/5 18/25/5 17/18/5 20/17/5
f 15/24/6 14/23/6 13/29/6 16/30/6
f 3/4/6 4/3/6 16/30/6 13/29/6
f 13/29/6 14/23/6 11/23/6 12/29/6
f 18/13/1 13/14/1 12/14/1 9/13/1
f 14/11/3 17/12/3 10/12/3 11/11/3
o Cube.007
v -0.497807 0.104104 0.056462
v -0.509354 0.092557 0.068009
v -0.497807 0.605024 0.056462
v -0.509354 0.616571 0.068009
v -0.497807 0.104104 -0.056462
v -0.509354 0.092557 -0.068009
v -0.497807 0.605024 -0.056462
v -0.509354 0.616571 -0.068009
v 0.497807 0.104104 0.056462
v 0.509354 0.092557 0.068009
v 0.497807 0.605024 0.056462
v 0.509354 0.616571 0.068009
v 0.497807 0.104104 -0.056462
v 0.509354 0.092557 -0.068009
v 0.497807 0.605024 -0.056462
v 0.509354 0.616571 -0.068009
v -0.058504 -0.605024 0.056462
v -0.070051 -0.616571 0.068009
v 0.058504 -0.605024 0.056462
v 0.070051 -0.616571 0.068009
v 0.058504 -0.605024 -0.056462
v 0.070051 -0.616571 -0.068009
v -0.058504 -0.605024 -0.056462
v -0.070051 -0.616571 -0.068009
v -0.061262 0.101346 -0.053190
v -0.067293 0.095315 -0.071281
v 0.061262 0.101346 -0.053190
v 0.067293 0.095315 -0.071281
v 0.061262 0.101346 0.053190
v 0.067293 0.095315 0.071281
v -0.061262 0.101346 0.053190
v -0.067293 0.095315 0.071281
v -0.503580 0.108330 0.052235
v -0.503580 0.600797 0.052235
v -0.503580 0.600797 -0.052235
v -0.503580 0.108330 -0.052235
v 0.503580 0.108330 -0.052235
v 0.503580 0.600797 -0.052235
v 0.503580 0.600797 0.052235
v 0.503580 0.108330 0.052235
v 0.054278 -0.610797 -0.052235
v 0.054278 -0.610797 0.052235
v -0.054278 -0.610797 0.052235
v -0.054278 -0.610797 -0.052235
v -0.493580 0.098330 -0.052235
v -0.074278 0.098330 -0.052235
v -0.074278 0.098330 0.052235
v -0.493580 0.098330 0.052235
v 0.493580 0.610797 0.052235
v 0.493580 0.610797 -0.052235
v -0.493580 0.610797 -0.052235
v -0.493580 0.610797 0.052235
v 0.064278 0.108330 -0.062235
v -0.064278 0.108330 -0.062235
v -0.493580 0.108330 -0.062235
v -0.493580 0.600797 -0.062235
v 0.493580 0.600797 -0.062235
v 0.493580 0.108330 -0.062235
v -0.064278 0.108330 0.062235
v 0.064278 0.108330 0.062235
v 0.493580 0.108330 0.062235
v 0.493580 0.600797 0.062235
v -0.493580 0.600797 0.062235
v -0.493580 0.108330 0.062235
v 0.074278 0.098330 -0.052235
v 0.493580 0.098330 -0.052235
v 0.493580 0.098330 0.052235
v 0.074278 0.098330 0.052235
v 0.054278 0.088330 0.062235
v -0.054278 0.088330 0.062235
v -0.054278 -0.600797 0.062235
v 0.054278 -0.600797 0.062235
v -0.054278 0.088330 -0.062235
v 0.054278 0.088330 -0.062235
v 0.054278 -0.600797 -0.062235
v -0.054278 -0.600797 -0.062235
v -0.064278 0.088330 0.052235
v -0.064278 0.088330 -0.052235
v -0.064278 -0.600797 -0.052235
v -0.064278 -0.600797 0.052235
v 0.064278 0.088330 -0.052235
v 0.064278 0.088330 0.052235
v 0.064278 -0.600797 0.052235
v 0.064278 -0.600797 -0.052235
vn 0.5907 -0.0000 -0.8069
vn -0.9391 -0.0000 -0.3437
vn 0.5907 -0.8069 -0.0000
vn -0.9391 -0.3437 -0.0000
vn 0.5907 -0.0000 0.8069
vn -0.9391 -0.0000 0.3437
vn 0.5907 0.8069 -0.0000
vn -0.9391 0.3437 -0.0000
vn -0.5907 -0.0000 0.8069
vn 0.9391 -0.0000 0.3437
vn -0.5907 -0.8069 -0.0000
vn 0.9391 -0.3437 -0.0000
vn -0.5907 -0.0000 -0.8069
vn 0.9391 -0.0000 -0.3437
vn -0.5907 0.8069 -0.0000
vn 0.9391 0.3437 -0.0000
vn -0.8069 0.5907 -0.0000
vn -0.3437 -0.9391 -0.0000
vn -0.0000 0.5907 -0.8069
vn -0.0000 -0.9391 -0.3437
vn 0.8069 0.5907 -0.0000
vn 0.3437 -0.9391 -0.0000
vn -0.0000 0.5907 0.8069
vn -0.0000 -0.9391 0.3437
vn -0.0016 0.5091 0.8607
vn 0.0040 -0.9698 0.2438
vn -0.2257 0.9742 -0.0000
vn -0.3963 -0.9181 -0.0000
vn -0.0016 0.5091 -0.8607
vn 0.0040 -0.9698 -0.2438
vn -0.8069 -0.5907 -0.0000
vn -0.3437 0.9391 -0.0000
vn -0.0000 -0.5907 0.8069
vn -0.0000 0.9391 0.3437
vn 0.8069 -0.5907 -0.0000
vn 0.3437 0.9391 -0.0000
vn -0.0000 -0.5907 -0.8069
vn -0.0000 0.9391 -0.3437
vn -0.0000 0.7915 0.6112
vn -0.0000 0.5707 -0.8212
vn 0.0003 0.7975 0.6034
vn -0.0048 0.4601 -0.8878
vn 0.8069 -0.0000 0.5907
vn 0.3437 -0.0000 -0.9391
vn -0.0000 -0.8069 0.5907
vn -0.0000 -0.3437 -0.9391
vn -0.8069 -0.0000 0.5907
vn -0.3437 -0.0000 -0.9391
vn -0.0003 0.7975 0.6034
vn 0.0048 0.4601 -0.8878
vn -0.0000 0.7915 -0.6112
vn -0.0000 0.5707 0.8212
vn -0.0003 0.7975 -0.6034
vn 0.0048 0.4601 0.8878
vn -0.8069 -0.0000 -0.5907
vn -0.3437 -0.0000 0.9391
vn -0.0000 -0.8069 -0.5907
vn -0.0000 -0.3437 0.9391
vn 0.8069 -0.0000 -0.5907
vn 0.3437 -0.0000 0.9391
vn 0.0003 0.7975 -0.6034
vn -0.0048 0.4601 0.8878
vn 0.0016 0.5091 0.8607
vn -0.0040 -0.9698 0.2438
vn 0.0016 0.5091 -0.8607
vn -0.0040 -0.9698 -0.2438
vn 0.2257 0.9742 -0.0000
vn 0.3963 -0.9181 -0.0000
vn -0.0000 -0.5707 -0.8212
vn -0.0000 -0.7915 0.6112
vn 0.7975 0.0002 -0.6033
vn 0.4584 -0.0030 0.8887
vn -0.0000 0.8069 -0.5907
vn -0.0000 0.3437 0.9391
vn -0.7975 0.0002 -0.6033
vn -0.4584 -0.0030 0.8887
vn -0.0000 -0.5707 0.8212
vn -0.0000 -0.7915 -0.6112
vn -0.7975 0.0002 0.6033
vn -0.4584 -0.0030 -0.8887
vn -0.0000 0.8069 0.5907
vn -0.0000 0.3437 -0.9391
vn 0.7975 0.0002 0.6033
vn 0.4584 -0.0030 -0.8887
vn 0.9742 -0.2257 -0.0000
vn -0.9181 -0.3963 -0.0000
vn 0.5086 -0.0010 0.8610
vn -0.9697 0.0025 0.2441
vn 0.5086 -0.0010 -0.8610
vn -0.9697 0.0025 -0.2441
vn -0.9742 -0.2257 -0.0000
vn 0.9181 -0.3963 -0.0000
vn -0.5086 -0.0010 -0.8610
vn 0.9697 0.0025 -0.2441
vn -0.5086 -0.0010 0.8610
vn 0.9697 0.0025 0.2441
vt 0.375000 0.000000
vt 0.625000 0.000000
vt 0.625000 0.250000
vt 0.375000 0.250000
vt 0.375000 0.500000
vt 0.625000 0.500000
vt 0.625000 0.750000
vt 0.375000 0.750000
vt 0.265955 0.500000
vt 0.265955 0.750000
vt 0.234045 0.750000
vt 0.234045 0.500000
vt 0.125000 0.500000
vt 0.125000 0.750000
vt 0.875000 0.500000
vt 0.875000 0.750000
vt 0.375000 0.390955
vt 0.375000 0.359045
vt 0.375000 0.890955
vt 0.375000 0.859045
vt 0.625000 1.000000
vt 0.375000 1.000000
s 0
usemtl Material.002
f 53/31/7 54/32/7 23/32/7 21/31/7
f 54/32/8 53/31/8 22/31/8 24/32/8
f 54/32/9 55/33/9 27/33/9 23/32/9
f 55/33/10 54/32/10 24/32/10 28/33/10
f 55/33/11 56/34/11 25/34/11 27/33/11
f 56/34/12 55/33/12 28/33/12 26/34/12
f 56/34/13 53/31/13 21/31/13 25/34/13
f 53/31/14 56/34/14 26/34/14 22/31/14
f 57/35/15 58/36/15 35/36/15 33/35/15
f 58/36/16 57/35/16 34/35/16 36/36/16
f 58/36/17 59/37/17 31/37/17 35/36/17
f 59/37/18 58/36/18 36/36/18 32/37/18
f 59/37/19 60/38/19 29/38/19 31/37/19
f 60/38/20 59/37/20 32/37/20 30/38/20
f 60/38/21 57/35/21 33/35/21 29/38/21
f 57/35/22 60/38/22 30/38/22 34/35/22
f 61/39/23 62/40/23 39/40/23 41/39/23
f 62/40/24 61/39/24 42/39/24 40/40/24
f 62/40/25 63/41/25 37/41/25 39/40/25
f 63/41/26 62/40/26 40/40/26 38/41/26
f 63/41/27 64/42/27 43/42/27 37/41/27
f 64/42/28 63/41/28 38/41/28 44/42/28
f 64/42/29 61/39/29 41/39/29 43/42/29
f 61/39/30 64/42/30 44/42/30 42/39/30
f 65/43/31 66/42/31 45/42/31 25/43/31
f 66/42/32 65/43/32 26/43/32 46/42/32
f 66/42/33 67/41/33 51/41/33 45/42/33
f 67/41/34 66/42/34 46/42/34 52/41/34
f 67/41/35 68/44/35 21/44/35 51/41/35
f 68/44/36 67/41/36 52/41/36 22/44/36
f 68/44/27 65/43/27 25/43/27 21/44/27
f 65/43/28 68/44/28 22/44/28 26/43/28
f 69/37/37 70/36/37 35/36/37 31/37/37
f 70/36/38 69/37/38 32/37/38 36/36/38
f 70/36/39 71/45/39 27/45/39 35/36/39
f 71/45/40 70/36/40 36/36/40 28/45/40
f 71/45/41 72/46/41 23/46/41 27/45/41
f 72/46/42 71/45/42 28/45/42 24/46/42
f 72/46/43 69/37/43 31/37/43 23/46/43
f 69/37/44 72/46/44 24/46/44 32/37/44
f 73/47/45 74/48/45 45/48/45 47/47/45
f 74/48/46 73/47/46 48/47/46 46/48/46
f 74/48/47 75/34/47 25/34/47 45/48/47
f 75/34/48 74/48/48 46/48/48 26/34/48
f 75/34/49 76/33/49 27/33/49 25/34/49
f 76/33/50 75/34/50 26/34/50 28/33/50
f 76/33/51 77/36/51 35/36/51 27/33/51
f 77/36/52 76/33/52 28/33/52 36/36/52
f 77/36/53 78/35/53 33/35/53 35/36/53
f 78/35/54 77/36/54 36/36/54 34/35/54
f 78/35/55 73/47/55 47/47/55 33/35/55
f 73/47/56 78/35/56 34/35/56 48/47/56
f 79/49/57 80/50/57 49/50/57 51/49/57
f 80/50/58 79/49/58 52/49/58 50/50/58
f 80/50/59 81/38/59 29/38/59 49/50/59
f 81/38/60 80/50/60 50/50/60 30/38/60
f 81/38/61 82/37/61 31/37/61 29/38/61
f 82/37/62 81/38/62 30/38/62 32/37/62
f 82/37/63 83/51/63 23/51/63 31/37/63
f 83/51/64 82/37/64 32/37/64 24/51/64
f 83/51/65 84/52/65 21/52/65 23/51/65
f 84/52/66 83/51/66 24/51/66 22/52/66
f 84/52/67 79/49/67 51/49/67 21/52/67
f 79/49/68 84/52/68 22/52/68 52/49/68
f 85/39/69 86/35/69 33/35/69 47/39/69
f 86/35/70 85/39/70 48/39/70 34/35/70
f 86/35/23 87/38/23 29/38/23 33/35/23
f 87/38/24 86/35/24 34/35/24 30/38/24
f 87/38/71 88/40/71 49/40/71 29/38/71
f 88/40/72 87/38/72 30/38/72 50/40/72
f 88/40/73 85/39/73 47/39/73 49/40/73
f 85/39/74 88/40/74 50/40/74 48/39/74
f 89/50/75 90/49/75 51/49/75 49/50/75
f 90/49/76 89/50/76 50/50/76 52/49/76
f 90/49/77 91/49/77 37/49/77 51/49/77
f 91/49/78 90/49/78 52/49/78 38/49/78
f 91/49/79 92/50/79 39/50/79 37/49/79
f 92/50/80 91/49/80 38/49/80 40/50/80
f 92/50/81 89/50/81 49/50/81 39/50/81
f 89/50/82 92/50/82 40/50/82 50/50/82
f 93/48/83 94/47/83 47/47/83 45/48/83
f 94/47/84 93/48/84 46/48/84 48/47/84
f 94/47/85 95/47/85 41/47/85 47/47/85
f 95/47/86 94/47/86 48/47/86 42/47/86
f 95/47/87 96/48/87 43/48/87 41/47/87
f 96/48/88 95/47/88 42/47/88 44/48/88
f 96/48/89 93/48/89 45/48/89 43/48/89
f 93/48/90 96/48/90 44/48/90 46/48/90
f 97/41/91 98/42/91 45/42/91 51/41/91
f 98/42/92 97/41/92 52/41/92 46/42/92
f 98/42/93 99/42/93 43/42/93 45/42/93
f 99/42/94 98/42/94 46/42/94 44/42/94
f 99/42/13 100/41/13 37/41/13 43/42/13
f 100/41/14 99/42/14 44/42/14 38/41/14
f 100/41/95 97/41/95 51/41/95 37/41/95
f 97/41/96 100/41/96 38/41/96 52/41/96
f 101/39/97 102/40/97 49/40/97 47/39/97
f 102/40/98 101/39/98 48/39/98 50/40/98
f 102/40/99 103/40/99 39/40/99 49/40/99
f 103/40/100 102/40/100 50/40/100 40/40/100
f 103/40/21 104/39/21 41/39/21 39/40/21
f 104/39/22 103/40/22 40/40/22 42/39/22
f 104/39/101 101/39/101 47/39/101 41/39/101
f 101/39/102 104/39/102 42/39/102 48/39/102
