# Blender 4.0.0
# www.blender.org
mtllib map3.mtl
o map3.001
v 0.635911 -0.104975 -0.013731
v 0.642367 -0.326993 -0.013731
v 0.328795 -0.113906 -0.013731
v 0.335251 -0.335924 -0.013731
vn -0.0000 -0.0000 -1.0000
vt 0.980506 0.476830
vt 0.802760 0.476830
vt 0.802760 0.230955
vt 0.980506 0.230955
s 0
usemtl papers_albedo
f 1/1/1 2/2/1 4/3/1 3/4/1
o map3.002
v -0.307150 -0.308994 -0.013702
v -0.337325 -0.388593 -0.013702
v -0.468800 -0.247716 -0.013702
v -0.498975 -0.327315 -0.013702
vn -0.0000 -0.0000 -1.0000
vt 0.067363 0.621100
vt 0.067363 0.466693
vt 0.380933 0.466693
vt 0.380933 0.621100
s 0
usemtl papers_albedo
f 5/5/2 6/6/2 8/7/2 7/8/2
o map3.003
v 0.262975 -0.284602 -0.013913
v -0.268263 -0.284602 -0.013913
v 0.262975 0.283970 -0.013913
v -0.268263 0.283970 -0.013913
v -0.002644 -0.284602 -0.013913
v -0.002644 0.283970 -0.013913
v -0.135454 -0.279897 -0.013913
v -0.135454 0.283970 -0.013913
vn -0.0000 -0.0000 -1.0000
vt 0.750000 0.008275
vt 1.000000 0.000000
vt 1.000000 1.000000
vt 0.750000 1.000000
vt 0.000000 0.000000
vt 0.500000 0.000000
vt 0.500000 1.000000
vt 0.000000 1.000000
s 0
usemtl map3
f 15/9/3 10/10/3 12/11/3 16/12/3
f 9/13/3 13/14/3 14/15/3 11/16/3
f 13/14/3 15/9/3 16/12/3 14/15/3
o map3.004
v -0.552202 0.047918 -0.013700
v -0.376981 0.108695 -0.013700
v -0.647991 0.324078 -0.013700
v -0.472770 0.384855 -0.013700
vn -0.0000 -0.0000 -1.0000
vt 0.012011 0.629917
vt 0.022745 0.988559
vt 0.532175 0.972882
vt 0.521442 0.614240
s 0
usemtl papers_albedo
f 17/17/4 19/20/4 20/19/4 18/18/4
o map3.008
v -0.721662 -0.474056 0.001133
v -0.717495 -0.472346 0.001133
v -0.718930 -0.474781 0.003567
v -0.721662 -0.474056 -0.033657
v -0.802250 -0.553562 0.001133
v -0.798049 -0.552837 0.003567
v -0.801549 -0.555272 0.001133
v -0.802250 -0.553562 -0.033657
v -0.801549 -0.555272 -0.033657
v -0.798049 -0.552837 -0.036092
v -0.718930 -0.474781 -0.036092
v 0.792759 -0.552837 -0.036092
v 0.796959 -0.553562 -0.033657
v 0.796258 -0.555272 -0.033657
v 0.713642 -0.474780 -0.036092
v 0.716374 -0.474056 -0.033657
v 0.712206 -0.472346 -0.033657
v 0.712206 -0.472346 0.001133
v -0.717495 -0.472346 -0.033657
v 0.713642 -0.474780 0.003567
v 0.716374 -0.474056 0.001133
v 0.796959 -0.553562 0.001133
v 0.796258 -0.555272 0.001133
v 0.792759 -0.552837 0.003567
v -0.719110 -0.472794 0.015016
v -0.719110 0.472163 0.015016
v -0.719110 -0.472794 -0.013601
v -0.719110 0.472163 -0.013601
v 0.713817 -0.472794 0.015016
v 0.713817 0.472163 0.015016
v 0.713817 -0.472794 -0.013601
v 0.713817 0.472163 -0.013601
v -0.803985 -0.555272 0.032190
v -0.803985 -0.555272 0.003568
v -0.803985 0.554640 0.032190
v 0.798692 -0.555272 0.032190
v 0.798692 -0.555272 0.003568
v 0.798692 0.554640 0.032190
v 0.798692 0.554640 0.003568
v -0.803985 0.554640 0.003568
v 0.716371 -0.474056 0.001133
v 0.714638 -0.469912 0.001133
v 0.717073 -0.471328 0.003567
v 0.716371 -0.474056 -0.033657
v 0.796958 -0.553562 0.001133
v 0.796257 -0.549450 0.003567
v 0.798691 -0.552837 0.001133
v 0.796958 -0.553562 -0.033657
v 0.798691 -0.552837 -0.033657
v 0.796257 -0.549450 -0.036091
v 0.717073 -0.471328 -0.036091
v 0.796257 0.548819 -0.036091
v 0.796958 0.552930 -0.033657
v 0.798691 0.552206 -0.033657
v 0.717073 0.470697 -0.036091
v 0.716371 0.473424 -0.033657
v 0.714638 0.469280 -0.033657
v 0.714638 0.469280 0.001133
v 0.714638 -0.469912 -0.033657
v 0.717073 0.470697 0.003567
v 0.716371 0.473424 0.001133
v 0.796958 0.552930 0.001133
v 0.798691 0.552206 0.001133
v 0.796257 0.548819 0.003567
v -0.802251 -0.553562 0.001133
v -0.803984 -0.552837 0.001133
v -0.801550 -0.549450 0.003567
v -0.802251 -0.553562 -0.033657
v -0.721664 -0.474056 0.001133
v -0.722365 -0.471328 0.003567
v -0.719931 -0.469912 0.001133
v -0.721664 -0.474056 -0.033657
v -0.719931 -0.469912 -0.033657
v -0.722365 -0.471328 -0.036091
v -0.801550 -0.549450 -0.036091
v -0.722365 0.470697 -0.036091
v -0.721664 0.473424 -0.033657
v -0.719931 0.469280 -0.033657
v -0.801550 0.548819 -0.036091
v -0.802251 0.552930 -0.033657
v -0.803984 0.552206 -0.033657
v -0.803984 0.552206 0.001133
v -0.803984 -0.552837 -0.033657
v -0.801550 0.548819 0.003567
v -0.802251 0.552930 0.001133
v -0.721664 0.473424 0.001133
v -0.719931 0.469280 0.001133
v -0.722365 0.470697 0.003567
v -0.802251 0.552931 0.001133
v -0.801550 0.554641 0.001133
v -0.798050 0.552206 0.003567
v -0.802251 0.552931 -0.033657
v -0.721663 0.473425 0.001133
v -0.718931 0.474149 0.003567
v -0.717496 0.471715 0.001133
v -0.721663 0.473425 -0.033657
v -0.717496 0.471715 -0.033657
v -0.718931 0.474149 -0.036091
v -0.798050 0.552206 -0.036091
v 0.713641 0.474150 -0.036091
v 0.716372 0.473425 -0.033657
v 0.712205 0.471715 -0.033657
v 0.792757 0.552206 -0.036091
v 0.796958 0.552931 -0.033657
v 0.796257 0.554641 -0.033657
v 0.796257 0.554641 0.001133
v -0.801550 0.554641 -0.033657
v 0.792757 0.552206 0.003567
v 0.796958 0.552931 0.001133
v 0.716372 0.473425 0.001133
v 0.712205 0.471715 0.001133
v 0.713641 0.474150 0.003567
v 0.501614 -1.512784 0.083174
v 0.501614 -1.512784 0.032190
v 0.501614 0.038430 0.083174
v 0.382935 -1.512784 0.083174
v 0.382935 -1.512784 0.032190
v 0.382935 0.038430 0.083174
v 0.382935 0.038430 0.032190
v 0.501614 0.038430 0.032190
v -0.368841 -1.512784 0.083174
v -0.368841 -1.512784 0.032190
v -0.368841 0.038430 0.083174
v -0.487520 -1.512784 0.083174
v -0.487520 -1.512784 0.032190
v -0.487520 0.038430 0.083174
v -0.487520 0.038430 0.032190
v -0.368841 0.038430 0.032190
vn -0.3796 0.9252 -0.0000
vn -0.3107 0.7574 0.5742
vn -0.4966 0.5034 0.7071
vn -0.7023 0.7119 -0.0000
vn -0.4671 -0.1916 0.8632
vn -0.9252 -0.3795 -0.0000
vn -0.4672 -0.1916 -0.8632
vn -0.4966 0.5034 -0.7071
vn -0.0000 -0.7071 -0.7071
vn -0.0000 -0.0000 -1.0000
vn 0.4966 0.5034 -0.7071
vn 0.4672 -0.1916 -0.8631
vn 0.3108 0.7574 -0.5742
vn -0.0000 0.7071 -0.7071
vn 0.3796 0.9252 -0.0000
vn -0.0000 1.0000 -0.0000
vn -0.3107 0.7574 -0.5742
vn -0.0000 0.7071 0.7071
vn 0.3108 0.7574 0.5742
vn 0.4966 0.5034 0.7071
vn 0.7023 0.7119 -0.0000
vn 0.9252 -0.3795 -0.0000
vn 0.4672 -0.1916 0.8631
vn -0.0000 -0.7071 0.7071
vn -0.0000 -0.0000 1.0000
vn -0.0000 -1.0000 -0.0000
vn -1.0000 -0.0000 -0.0000
vn 1.0000 -0.0000 -0.0000
vn -0.9226 -0.3858 -0.0000
vn -0.7565 -0.3163 0.5724
vn -0.4966 -0.5034 0.7071
vn -0.7023 -0.7119 -0.0000
vn 0.1982 -0.4741 0.8579
vn 0.3858 -0.9226 -0.0000
vn 0.1982 -0.4741 -0.8579
vn -0.4966 -0.5034 -0.7071
vn 0.7071 -0.0000 -0.7071
vn 0.1983 0.4741 -0.8579
vn -0.7565 0.3163 -0.5724
vn -0.7071 -0.0000 -0.7071
vn -0.9226 0.3858 -0.0000
vn -0.7565 -0.3163 -0.5724
vn -0.7071 -0.0000 0.7071
vn -0.7565 0.3163 0.5724
vn 0.3858 0.9226 -0.0000
vn 0.1983 0.4741 0.8579
vn 0.7071 -0.0000 0.7071
vn -0.3858 -0.9226 -0.0000
vn -0.1982 -0.4741 0.8579
vn 0.4966 -0.5034 0.7071
vn 0.7023 -0.7119 -0.0000
vn 0.7565 -0.3163 0.5724
vn 0.9226 -0.3858 -0.0000
vn 0.7565 -0.3163 -0.5724
vn 0.4966 -0.5034 -0.7071
vn 0.7565 0.3163 -0.5724
vn -0.1983 0.4741 -0.8579
vn -0.3858 0.9226 -0.0000
vn -0.1982 -0.4741 -0.8579
vn -0.1983 0.4741 0.8579
vn 0.9226 0.3858 -0.0000
vn 0.7565 0.3163 0.5724
vn -0.9252 0.3796 -0.0000
vn -0.4671 0.1917 0.8632
vn -0.3108 -0.7574 0.5742
vn -0.3796 -0.9252 -0.0000
vn -0.3108 -0.7574 -0.5742
vn 0.3108 -0.7574 -0.5742
vn 0.4671 0.1916 -0.8632
vn 0.9252 0.3796 -0.0000
vn -0.4671 0.1917 -0.8632
vn 0.4671 0.1916 0.8632
vn 0.3796 -0.9252 -0.0000
vn 0.3108 -0.7574 0.5742
vt 0.786972 2.314826
vt 0.783265 2.314826
vt 0.783265 2.337164
vt 0.786973 2.337164
vt 0.784806 2.337164
vt 0.785695 2.338727
vt 0.884578 2.338727
vt 0.887692 2.337164
vt 0.887692 2.314826
vt 0.888316 2.337164
vt 0.889858 2.337164
vt 0.889858 2.314826
vt 0.888316 2.314826
vt 0.884578 2.313262
vt 0.785695 2.313262
vt -0.121613 2.388094
vt -0.118500 2.389657
vt 1.296842 2.389657
vt 1.299955 2.388094
vt 1.226450 2.682607
vt 1.296842 2.613160
vt -0.118500 2.613160
vt -0.048110 2.682607
vt 0.084155 1.862908
vt 0.085432 1.861345
vt -0.013450 1.861345
vt -0.016563 1.862908
vt -0.017187 1.862908
vt 0.086321 1.862908
vt -0.123146 2.313262
vt -0.122237 2.314826
vt 0.784174 2.313262
vt 0.084155 1.885247
vt 0.086321 1.885247
vt -0.122237 2.337164
vt 0.784806 2.314826
vt 0.784174 2.338727
vt -0.123146 2.338727
vt 0.085432 1.886810
vt -0.016563 1.885247
vt -0.013450 1.886810
vt -0.018729 1.862908
vt -0.018729 1.885247
vt -0.017187 1.885247
vt -0.118500 2.364192
vt -0.121613 2.365756
vt 1.299955 2.365756
vt 1.296842 2.364192
vt 1.296842 2.608828
vt 1.226450 2.539381
vt -0.048109 2.539381
vt -0.118500 2.608829
vt 1.011935 2.141449
vt 1.053893 2.141449
vt 1.053893 0.755930
vt 1.011935 0.755930
vt -0.457501 2.856922
vt -0.457501 0.755929
vt -1.843020 0.755930
vt -1.843020 2.856922
vt 1.011935 3.526968
vt 1.053893 3.526968
vt 1.053893 2.141448
vt 1.011935 2.141448
vt 0.928018 2.856922
vt 0.928018 0.755930
vt -0.457501 0.755930
vt -0.457501 2.856922
vt 0.969977 0.755930
vt 0.969977 2.856922
vt 1.011935 2.856922
vt 0.268270 0.651081
vt 0.255260 0.651081
vt 0.255260 1.379580
vt 0.268270 1.379580
vt 0.281281 1.155593
vt 0.294291 1.155593
vt 0.294291 0.651081
vt 0.281281 0.651081
vt -0.249252 0.651081
vt -0.249252 1.379580
vt 0.281281 1.660104
vt 0.294291 1.660104
vt 0.268270 1.379580
vt 0.281281 1.379580
vt -0.249252 1.379580
vt -0.249252 0.651081
vt -0.753764 0.651081
vt -0.753763 1.379580
vt 0.791452 1.964768
vt 0.787765 1.964768
vt 0.787765 1.987107
vt 0.791452 1.987107
vt 0.789931 1.987107
vt 0.790567 1.988670
vt 0.860072 1.988670
vt 0.862189 1.987107
vt 0.862188 1.964768
vt 0.862641 1.987106
vt 0.863710 1.987106
vt 0.863710 1.964768
vt 0.862641 1.964768
vt 0.860072 1.963205
vt 0.790567 1.963205
vt -0.121613 2.213016
vt -0.118600 2.215182
vt 0.858531 2.215181
vt 0.861544 2.213016
vt 0.789025 2.285632
vt -0.049094 2.285632
vt -0.051521 1.964768
vt -0.050636 1.963205
vt -0.120141 1.963205
vt -0.122258 1.964768
vt -0.122711 1.964768
vt -0.050000 1.964768
vt -0.049094 1.963205
vt -0.047834 1.964768
vt 0.789025 1.963205
vt -0.051521 1.987107
vt -0.047834 1.987107
vt 0.789931 1.964768
vt 0.789025 1.988670
vt -0.049094 1.988670
vt -0.050636 1.988670
vt -0.050000 1.987107
vt -0.122258 1.987107
vt -0.120141 1.988670
vt -0.123779 1.964768
vt -0.123779 1.987107
vt -0.122711 1.987107
vt -0.118600 1.912275
vt -0.121613 1.913838
vt 0.861544 1.913838
vt 0.858530 1.912275
vt 0.858531 2.210850
vt 0.789025 2.140399
vt -0.049094 2.140399
vt -0.118599 2.210850
vt 0.861544 1.936177
vt -0.121613 1.936177
vt 0.862188 1.961642
vt 0.863710 1.961642
vt 0.863710 1.939303
vt 0.862188 1.939303
vt 0.862641 1.939303
vt 0.860072 1.937740
vt 0.790567 1.937740
vt 0.791452 1.939303
vt 0.791452 1.961642
vt 0.789931 1.939303
vt 0.787765 1.939303
vt 0.787765 1.961642
vt 0.789931 1.961642
vt 0.860072 1.963205
vt -0.047834 1.961642
vt 0.858531 2.136068
vt 0.789025 2.065618
vt -0.049094 2.065618
vt -0.118600 2.136068
vt -0.122258 1.961642
vt -0.051521 1.961642
vt -0.050000 1.961642
vt -0.122711 1.961642
vt -0.121613 2.138234
vt 0.861544 2.138234
vt -0.122258 1.939303
vt -0.123779 1.939303
vt -0.123779 1.961642
vt 0.861544 1.910712
vt 0.861544 1.888373
vt -0.121613 1.888373
vt -0.121613 1.910712
vt 0.862641 1.961642
vt -0.118600 1.912275
vt -0.120141 1.937740
vt -0.122711 1.939303
vt -0.051521 1.939303
vt -0.050636 1.937740
vt -0.047834 1.939303
vt -0.050000 1.939303
vt -0.049094 1.937740
vt 0.789025 1.937740
vt 0.789025 2.061285
vt 0.858531 1.990836
vt -0.118600 1.990836
vt -0.049094 2.061286
vt 0.887691 2.311699
vt 0.889857 2.311699
vt 0.889857 2.289361
vt 0.887691 2.289361
vt 0.888315 2.289361
vt 0.884578 2.287797
vt 0.785694 2.287797
vt 0.786972 2.289361
vt 0.786972 2.311699
vt 0.784806 2.289361
vt 0.783264 2.289361
vt 0.783264 2.311699
vt 0.784806 2.311699
vt 0.785694 2.313262
vt 0.884578 2.313262
vt -0.122237 2.311699
vt 0.784173 2.313262
vt 1.296842 2.535049
vt 1.226450 2.465602
vt -0.048109 2.465602
vt -0.118500 2.535049
vt -0.121613 1.885247
vt -0.118500 1.886810
vt -0.019618 1.886810
vt -0.020895 1.885247
vt -0.122237 1.885247
vt -0.121613 2.537215
vt 1.299955 2.537215
vt -0.121613 1.862908
vt -0.123779 1.862908
vt -0.123779 1.885247
vt 1.299955 2.362629
vt 1.299955 2.340291
vt -0.121613 2.340291
vt -0.121613 2.362629
vt 0.888315 2.311699
vt 1.296842 2.391824
vt 1.299955 2.389657
vt -0.121613 2.389657
vt -0.118500 2.391824
vt -0.118500 1.861345
vt -0.122237 1.862908
vt -0.020895 1.862908
vt -0.019617 1.861345
vt -0.123146 2.287797
vt -0.122237 2.289361
vt 0.784173 2.287797
vt 1.226450 2.461271
vt -0.048109 2.461271
vt -0.070693 0.661495
vt -0.022011 0.661495
vt -0.022011 0.687890
vt -0.070693 0.687890
vt 0.732381 0.740680
vt -0.070693 0.740680
vt -0.070693 0.714285
vt 0.732381 0.714285
vt 0.732381 0.789361
vt -0.070693 0.789361
vt 0.732381 0.687890
vt 0.026670 0.661494
vt 0.026670 0.687890
vt -0.022011 0.687890
vt 0.732381 0.838043
vt -0.070693 0.838043
vt -0.348310 0.344218
vt -0.299629 0.344218
vt -0.299629 0.370613
vt -0.348310 0.370613
vt 0.454764 0.423403
vt -0.348310 0.423403
vt -0.348310 0.397008
vt 0.454764 0.397008
vt 0.454764 0.472085
vt -0.348310 0.472085
vt 0.454764 0.370613
vt -0.250947 0.344218
vt -0.250947 0.370613
vt -0.299629 0.370613
vt 0.454764 0.520766
vt -0.348310 0.520766
s 0
usemtl Wood1
f 45/73/31 46/76/31 48/75/31 47/74/31
f 47/77/14 48/80/14 52/79/14 51/78/14
f 51/81/32 52/84/32 50/83/32 49/82/32
f 49/85/29 50/88/29 46/87/29 45/86/29
f 47/89/30 51/90/30 49/85/30 45/86/30
f 52/76/20 48/91/20 46/90/20 50/89/20
usemtl Wood2
f 24/21/5 21/24/5 22/23/5 39/22/5
f 21/24/6 23/26/6 22/25/6
f 21/24/7 25/28/7 26/27/7 23/26/7
f 24/21/8 28/29/8 25/28/8 21/24/8
f 25/28/9 27/30/9 26/27/9
f 25/28/10 28/29/10 29/32/10 27/31/10
f 28/29/11 30/34/11 29/33/11
f 28/29/12 24/21/12 31/35/12 30/34/12
f 34/36/13 29/39/13 30/38/13 32/37/13
f 31/40/14 35/43/14 32/42/14 30/41/14
f 36/44/15 33/47/15 32/46/15 35/45/15
f 33/47/16 34/48/16 32/46/16
f 36/44/17 35/45/17 37/49/17
f 35/50/18 31/52/18 39/22/18 37/51/18
f 41/53/19 36/44/19 37/49/19 38/54/19
f 22/23/20 38/55/20 37/51/20 39/22/20
f 24/21/21 39/56/21 31/35/21
f 23/57/22 40/58/22 38/55/22 22/23/22
f 40/59/23 41/53/23 38/54/23
f 42/60/24 41/53/24 40/59/24 44/61/24
f 33/47/25 36/44/25 41/53/25 42/60/25
f 33/47/26 42/60/26 43/63/26 34/62/26
f 42/60/27 44/61/27 43/64/27
f 44/65/28 26/68/28 27/67/28 43/66/28
f 26/69/29 44/72/29 40/71/29 23/70/29
f 29/39/30 34/36/30 43/66/30 27/67/30
f 54/92/30 57/95/30 56/94/30 53/93/30
f 53/96/31 55/99/31 60/98/31 54/97/31
f 56/94/29 58/101/29 55/100/29 53/93/29
f 57/102/32 59/96/32 58/97/32 56/103/32
f 59/99/20 60/105/20 55/104/20 58/92/20
f 54/106/14 60/109/14 59/108/14 57/107/14
f 64/110/33 61/113/33 62/112/33 79/111/33
f 61/113/34 63/115/34 62/114/34
f 61/113/35 65/117/35 66/116/35 63/115/35
f 64/110/36 68/118/36 65/117/36 61/113/36
f 65/117/37 67/119/37 66/116/37
f 65/117/38 68/118/38 69/121/38 67/120/38
f 68/118/39 70/123/39 69/122/39
f 68/118/40 64/110/40 71/124/40 70/123/40
f 74/125/41 69/128/41 70/127/41 72/126/41
f 71/129/14 75/130/14 72/126/14 70/127/14
f 76/131/12 73/134/12 72/133/12 75/132/12
f 73/134/42 74/135/42 72/133/42
f 76/131/43 75/132/43 77/136/43
f 75/137/44 71/139/44 79/111/44 77/138/44
f 81/140/45 76/131/45 77/138/45 78/141/45
f 62/112/31 78/141/31 77/138/31 79/111/31
f 64/110/46 79/142/46 71/124/46
f 63/143/47 80/144/47 78/141/47 62/112/47
f 80/145/48 81/140/48 78/146/48
f 82/147/7 81/140/7 80/145/7 84/148/7
f 73/134/8 76/131/8 81/140/8 82/147/8
f 73/134/49 82/147/49 83/150/49 74/149/49
f 82/147/50 84/148/50 83/151/50
f 84/152/51 66/155/51 67/154/51 83/153/51
f 66/156/29 84/159/29 80/158/29 63/157/29
f 69/160/32 74/161/32 83/153/32 67/154/32
f 88/162/52 85/165/52 86/164/52 103/163/52
f 85/165/53 87/167/53 86/166/53
f 85/165/54 89/169/54 90/168/54 87/167/54
f 88/162/55 92/170/55 89/169/55 85/165/55
f 89/169/56 91/171/56 90/168/56
f 89/169/57 92/170/57 93/173/57 91/172/57
f 92/170/58 94/124/58 93/174/58
f 92/170/59 88/162/59 95/175/59 94/124/59
f 98/176/41 93/173/41 94/139/41 96/137/41
f 95/177/14 99/180/14 96/179/14 94/178/14
f 100/181/15 97/182/15 96/132/15 99/133/15
f 97/183/60 98/176/60 96/137/60
f 100/181/61 99/133/61 101/184/61
f 99/180/44 95/177/44 103/186/44 101/185/44
f 105/187/62 100/181/62 101/189/62 102/188/62
f 86/190/31 102/193/31 101/192/31 103/191/31
f 88/162/63 103/194/63 95/175/63
f 87/155/47 104/195/47 102/193/47 86/190/47
f 104/196/64 105/187/64 102/197/64
f 106/198/24 105/187/24 104/196/24 108/199/24
f 97/182/25 100/181/25 105/187/25 106/198/25
f 97/182/65 106/198/65 107/200/65 98/176/65
f 106/198/66 108/199/66 107/201/66
f 108/202/51 90/203/51 91/172/51 107/200/51
f 90/204/29 108/207/29 104/206/29 87/205/29
f 93/173/32 98/176/32 107/200/32 91/172/32
f 112/208/67 109/211/67 110/210/67 127/209/67
f 109/211/68 111/213/68 110/212/68
f 109/211/35 113/215/35 114/214/35 111/213/35
f 112/208/36 116/216/36 113/215/36 109/211/36
f 113/215/69 115/217/69 114/214/69
f 113/215/70 116/216/70 117/219/70 115/218/70
f 116/216/71 118/221/71 117/220/71
f 116/216/40 112/208/40 119/222/40 118/221/40
f 122/223/13 117/219/13 118/224/13 120/50/13
f 119/225/14 123/228/14 120/227/14 118/226/14
f 124/229/59 121/232/59 120/231/59 123/230/59
f 121/232/72 122/63/72 120/231/72
f 124/229/73 123/230/73 125/233/73
f 123/228/18 119/225/18 127/235/18 125/234/18
f 129/236/74 124/229/74 125/238/74 126/237/74
f 110/239/20 126/242/20 125/241/20 127/240/20
f 112/208/75 127/243/75 119/222/75
f 111/244/22 128/247/22 126/246/22 110/245/22
f 128/248/76 129/236/76 126/249/76
f 130/250/54 129/236/54 128/248/54 132/251/54
f 121/232/55 124/229/55 129/236/55 130/250/55
f 121/232/77 130/250/77 131/62/77 122/63/77
f 130/250/78 132/251/78 131/62/78
f 132/252/28 114/254/28 115/218/28 131/253/28
f 114/255/29 132/256/29 128/247/29 111/244/29
f 117/219/30 122/223/30 131/253/30 115/218/30
f 134/257/30 133/260/30 136/259/30 137/258/30
f 133/261/32 134/264/32 140/263/32 135/262/32
f 136/265/29 133/261/29 135/262/29 138/266/29
f 137/264/31 136/267/31 138/260/31 139/263/31
f 139/258/20 138/270/20 135/269/20 140/268/20
f 134/271/14 137/265/14 139/266/14 140/272/14
f 142/273/30 141/276/30 144/275/30 145/274/30
f 141/277/32 142/280/32 148/279/32 143/278/32
f 144/281/29 141/277/29 143/278/29 146/282/29
f 145/280/31 144/283/31 146/276/31 147/279/31
f 147/274/20 146/286/20 143/285/20 148/284/20
f 142/287/14 145/281/14 147/282/14 148/288/14
