# Blender 4.0.0
# www.blender.org
mtllib metalBox.mtl
o Cube.004
v -0.326302 -0.483521 0.297406
v -0.302284 -0.507539 0.297406
v -0.323084 -0.495530 0.297406
v -0.314293 -0.504321 0.297406
v -0.302284 0.507539 0.297406
v -0.326302 0.483521 0.297406
v -0.314293 0.504321 0.297406
v -0.323084 0.495530 0.297406
v 0.302284 -0.507539 0.297406
v 0.326302 -0.483521 0.297406
v 0.314293 -0.504321 0.297406
v 0.323084 -0.495530 0.297406
v 0.326302 0.483521 0.297406
v 0.302284 0.507539 0.297406
v 0.323084 0.495530 0.297406
v 0.314293 0.504321 0.297406
v -0.326302 0.483521 -0.228019
v -0.302284 0.507539 -0.228019
v -0.309319 0.490556 -0.228019
v -0.323084 0.495530 -0.228019
v -0.314293 0.504321 -0.228019
v -0.302284 -0.507539 -0.228019
v -0.326302 -0.483521 -0.228019
v -0.309319 -0.490556 -0.228019
v -0.314293 -0.504321 -0.228019
v -0.323084 -0.495530 -0.228019
v 0.326302 -0.483521 -0.228019
v 0.302284 -0.507539 -0.228019
v 0.309319 -0.490556 -0.228019
v 0.323084 -0.495530 -0.228019
v 0.314293 -0.504321 -0.228019
v 0.302284 0.507539 -0.228019
v 0.326302 0.483521 -0.228019
v 0.309319 0.490556 -0.228019
v 0.314293 0.504321 -0.228019
v 0.323084 0.495530 -0.228019
v -0.274930 0.453859 -0.243643
v -0.272168 0.450954 -0.244611
v -0.273633 0.452461 -0.244328
v -0.272168 -0.450954 -0.244611
v -0.274930 -0.453859 -0.243643
v -0.273633 -0.452461 -0.244328
v 0.272168 -0.450954 -0.244611
v 0.274930 -0.453859 -0.243643
v 0.273633 -0.452461 -0.244328
v 0.274930 0.453859 -0.243643
v 0.272168 0.450954 -0.244611
v 0.273633 0.452461 -0.244328
v -0.292775 -0.473869 -0.228987
v -0.295536 -0.476774 -0.228019
v -0.294072 -0.475267 -0.228302
v -0.295536 0.476774 -0.228019
v -0.292775 0.473869 -0.228987
v -0.294072 0.475267 -0.228302
v 0.292775 -0.473869 -0.228987
v 0.295536 -0.476774 -0.228019
v 0.294072 -0.475267 -0.228302
v 0.295536 0.476774 -0.228019
v 0.292775 0.473869 -0.228987
v 0.294072 0.475267 -0.228302
vn -0.0000 -0.0000 1.0000
vn 0.1305 0.9914 -0.0000
vn -0.1305 0.9914 -0.0000
vn -0.9914 -0.1305 -0.0000
vn -0.9914 0.1305 -0.0000
vn 0.9914 -0.1305 -0.0000
vn 0.9914 0.1305 -0.0000
vn -0.0236 -0.0238 -0.9994
vn 0.0236 -0.0238 -0.9994
vn -0.0000 -0.0000 -1.0000
vn -0.1305 -0.9914 -0.0000
vn -0.5000 -0.8660 -0.0000
vn -0.8660 -0.5000 -0.0000
vn -0.5000 0.8660 -0.0000
vn -0.8660 0.5000 -0.0000
vn 0.1305 -0.9914 -0.0000
vn 0.5000 -0.8660 -0.0000
vn 0.8660 -0.5000 -0.0000
vn 0.5000 0.8660 -0.0000
vn 0.8660 0.5000 -0.0000
vn 0.0236 0.0238 -0.9994
vn -0.0000 0.4858 -0.8741
vn -0.0000 0.5495 -0.8355
vn -0.0236 0.0238 -0.9994
vn -0.0722 -0.0694 -0.9950
vn -0.0722 0.0694 -0.9950
vn 0.0722 0.0694 -0.9950
vn 0.0722 -0.0694 -0.9950
vn 0.5139 -0.0000 -0.8579
vn 0.5931 -0.0000 -0.8051
vn -0.0000 -0.4858 -0.8741
vn -0.0000 -0.5495 -0.8355
vn -0.2095 -0.1940 -0.9584
vn -0.2095 0.1940 -0.9584
vn -0.5931 -0.0000 -0.8051
vn 0.2095 -0.1940 -0.9584
vn 0.2095 0.1940 -0.9584
vn -0.1328 0.1312 -0.9824
vn -0.1328 -0.1312 -0.9824
vn -0.5139 -0.0000 -0.8579
vn 0.1328 -0.1312 -0.9824
vn 0.1328 0.1312 -0.9824
vt 0.088186 -0.065865
vt 0.090082 -0.072943
vt 0.095264 -0.078124
vt 0.102342 -0.080021
vt 0.672309 -0.080021
vt 0.679387 -0.078124
vt 0.684568 -0.072943
vt 0.686465 -0.065865
vt 0.686465 0.290463
vt 0.684568 0.297541
vt 0.679387 0.302722
vt 0.672309 0.304618
vt 0.102342 0.304618
vt 0.095264 0.302722
vt 0.090082 0.297541
vt 0.088186 0.290463
vt 0.088186 0.500000
vt 0.088186 0.856328
vt -0.221495 0.856328
vt -0.221495 0.500000
vt -0.221495 1.448278
vt -0.221495 0.878310
vt 0.088186 0.878311
vt 0.088186 1.448278
vt 0.088186 -0.091950
vt 0.088186 0.478017
vt -0.221495 0.478017
vt -0.221495 -0.091950
vt 0.106523 -0.451932
vt 0.106606 -0.098340
vt 0.098381 -0.090128
vt 0.088260 -0.094318
vt 0.088186 -0.455959
vt 0.098302 -0.460147
vt 0.678127 -0.470261
vt 0.685269 -0.468346
vt 0.682306 -0.460153
vt 0.690504 -0.463116
vt 0.692426 -0.455964
vt 0.090104 -0.463109
vt 0.095337 -0.468342
vt 0.102483 -0.470261
vt 0.102559 -0.080021
vt 0.095417 -0.081935
vt 0.090182 -0.087165
vt 0.692500 -0.094322
vt 0.690583 -0.087172
vt 0.682384 -0.090134
vt 0.685349 -0.081939
vt 0.678203 -0.080021
vt 0.088186 1.470261
vt -0.221495 1.470261
vt -0.221495 1.462933
vt 0.088186 1.462933
vt -0.221495 1.455605
vt 0.088186 1.455605
vt 0.088186 0.863655
vt -0.221495 0.863655
vt 0.088186 0.870983
vt -0.221495 0.870983
vt -0.221495 -0.113933
vt 0.088186 -0.113933
vt 0.088186 -0.106605
vt -0.221495 -0.106605
vt 0.088186 -0.099278
vt -0.221495 -0.099278
vt -0.221495 0.492672
vt 0.088186 0.492672
vt -0.221495 0.485345
vt 0.088186 0.485345
vt 0.088186 -0.470261
vt -0.221495 -0.470261
vt 0.674163 -0.098349
vt 0.672342 -0.100093
vt 0.657821 -0.113864
vt 0.657426 -0.436699
vt 0.672259 -0.450205
vt 0.674080 -0.451942
vt 0.124703 -0.434653
vt 0.655587 -0.434938
vt 0.655983 -0.115628
vt 0.125099 -0.115344
vt 0.108427 -0.100077
vt 0.123261 -0.113582
vt 0.108344 -0.450189
vt 0.122866 -0.436418
vt 0.123796 -0.435540
vt 0.656496 -0.435822
vt 0.124190 -0.114460
vt 0.656890 -0.114742
vt 0.673171 -0.451062
vt 0.107429 -0.451049
vt 0.107515 -0.099219
vt 0.673257 -0.099232
s 1
usemtl Metal1
f 9/1/1 11/2/1 12/3/1 10/4/1 13/5/1 15/6/1 16/7/1 14/8/1 5/9/1 7/10/1 8/11/1 6/12/1 1/13/1 3/14/1 4/15/1 2/16/1
f 32/17/2 18/18/3 5/19/3 14/20/2
f 1/21/4 6/22/5 17/23/5 23/24/4
f 27/25/6 33/26/7 13/27/7 10/28/6
f 50/29/8 56/30/9 29/31/10 28/32/10 22/33/10 24/34/10
f 17/35/10 20/36/10 19/37/10
f 20/36/10 21/38/10 19/37/10
f 21/38/10 18/39/10 19/37/10
f 22/33/10 25/40/10 24/34/10
f 25/40/10 26/41/10 24/34/10
f 26/41/10 23/42/10 24/34/10
f 27/43/10 30/44/10 29/31/10
f 30/44/10 31/45/10 29/31/10
f 31/45/10 28/32/10 29/31/10
f 32/46/10 35/47/10 34/48/10
f 35/47/10 36/49/10 34/48/10
f 36/49/10 33/50/10 34/48/10
f 22/51/11 2/52/11 4/53/12 25/54/12
f 25/54/12 4/53/12 3/55/13 26/56/13
f 26/56/13 3/55/13 1/21/4 23/24/4
f 5/19/3 18/18/3 21/57/14 7/58/14
f 7/58/14 21/57/14 20/59/15 8/60/15
f 8/60/15 20/59/15 17/23/5 6/22/5
f 9/61/16 28/62/16 31/63/17 11/64/17
f 11/64/17 31/63/17 30/65/18 12/66/18
f 12/66/18 30/65/18 27/25/6 10/28/6
f 32/17/2 14/20/2 16/67/19 35/68/19
f 35/68/19 16/67/19 15/69/20 36/70/20
f 36/70/20 15/69/20 13/27/7 33/26/7
f 22/71/11 28/62/16 9/61/16 2/72/11
f 56/30/9 58/73/21 34/48/10 33/50/10 27/43/10 29/31/10
f 59/74/22 46/75/23 37/76/23 53/77/22
f 58/73/21 52/78/24 19/37/10 18/39/10 32/46/10 34/48/10
f 40/79/25 38/80/26 47/81/27 43/82/28
f 55/83/29 44/84/30 46/75/30 59/74/29
f 49/85/31 41/86/32 44/84/32 55/83/31
f 52/78/24 50/29/8 24/34/10 23/42/10 17/35/10 19/37/10
f 38/80/26 40/79/25 42/87/33 39/88/34
f 39/88/34 42/87/33 41/86/35 37/76/35
f 40/79/25 43/82/28 45/89/36 42/87/33
f 42/87/33 45/89/36 44/84/32 41/86/32
f 47/81/27 38/80/26 39/88/34 48/90/37
f 48/90/37 39/88/34 37/76/23 46/75/23
f 43/82/28 47/81/27 48/90/37 45/89/36
f 45/89/36 48/90/37 46/75/30 44/84/30
f 50/29/8 52/78/24 54/91/38 51/92/39
f 51/92/39 54/91/38 53/77/40 49/85/40
f 56/30/9 50/29/8 51/92/39 57/93/41
f 57/93/41 51/92/39 49/85/31 55/83/31
f 52/78/24 58/73/21 60/94/42 54/91/38
f 54/91/38 60/94/42 59/74/22 53/77/22
f 58/73/21 56/30/9 57/93/41 60/94/42
f 60/94/42 57/93/41 55/83/29 59/74/29
f 41/86/35 49/85/40 53/77/40 37/76/35
