# Blender 4.0.0
# www.blender.org
mtllib woodenLiftShaft.mtl
o Cube.012
v 2.274014 -8.323317 1.618369
v 2.274014 8.538536 1.618369
v 2.274168 -8.323317 1.921647
v 2.274168 8.538536 1.921647
v 1.970736 -8.323317 1.618525
v 1.970736 8.538536 1.618525
v 1.970890 -8.323317 1.921803
v 1.970890 8.538536 1.921803
v -1.951834 -8.323317 1.622717
v -1.951834 8.538536 1.622717
v -1.951682 -8.323317 1.925995
v -1.951682 8.538536 1.925995
v -2.255111 -8.323317 1.622873
v -2.255111 8.538536 1.622873
v -2.254960 -8.323317 1.926152
v -2.254960 8.538536 1.926152
v 2.233745 -8.323317 -1.921995
v 2.233745 8.538536 -1.921995
v 2.233899 -8.323317 -1.618717
v 2.233899 8.538536 -1.618717
v 1.930468 -8.323317 -1.921839
v 1.930468 8.538536 -1.921839
v 1.930621 -8.323317 -1.618561
v 1.930621 8.538536 -1.618561
v -2.000509 -8.323317 -1.913434
v -2.000509 8.538536 -1.913434
v -2.000357 -8.323317 -1.610156
v -2.000357 8.538536 -1.610156
v -2.303786 -8.323317 -1.913278
v -2.303786 8.538536 -1.913278
v -2.303635 -8.323317 -1.610000
v -2.303635 8.538536 -1.610000
v 2.058390 2.421235 -1.892169
v -2.091475 2.421235 -1.890073
v 2.058499 2.421235 -1.676228
v -2.091365 2.421235 -1.674132
v 2.058390 2.117957 -1.892169
v -2.091475 2.117957 -1.890073
v 2.058499 2.117957 -1.676228
v -2.091365 2.117957 -1.674132
v 2.094520 1.490086 -1.771806
v 1.325657 2.273889 -1.771421
v 2.094552 1.490086 -1.707698
v 1.325689 2.273889 -1.707312
v 1.986228 1.383857 -1.771752
v 1.217365 2.167660 -1.771366
v 1.986259 1.383857 -1.707644
v 1.217397 2.167660 -1.707258
v -2.135237 1.196847 -1.782938
v -1.230647 2.189154 -1.783399
v -2.135203 1.196847 -1.718830
v -1.230613 2.189154 -1.719286
v -2.247343 1.299043 -1.782885
v -1.342753 2.291350 -1.783341
v -2.247309 1.299043 -1.718772
v -1.342719 2.291350 -1.719233
v 2.227930 2.421235 1.667322
v 2.180537 2.421235 -1.656752
v 2.012010 2.421235 1.670397
v 1.964616 2.421235 -1.653673
v 2.227930 2.117957 1.667322
v 2.180537 2.117957 -1.656752
v 2.012010 2.117957 1.670397
v 1.964616 2.117957 -1.653673
v 2.250485 -1.248974 1.691257
v 2.202143 -1.248974 -1.699341
v 2.014576 -1.248974 1.694617
v 1.966234 -1.248974 -1.695976
v 2.250485 -1.552252 1.691257
v 2.202143 -1.552252 -1.699341
v 2.014576 -1.552252 1.694617
v 1.966234 -1.552252 -1.695976
v -1.981707 -1.248974 1.689287
v -2.030048 -1.248974 -1.701306
v -2.216195 -1.248974 1.692631
v -2.264535 -1.248974 -1.697963
v -1.981707 -1.552252 1.689287
v -2.030048 -1.552252 -1.701306
v -2.216195 -1.552252 1.692631
v -2.264535 -1.552252 -1.697963
v -1.997694 2.421596 1.689790
v -2.045088 2.421596 -1.634284
v -2.213616 2.421596 1.692865
v -2.261009 2.421596 -1.631205
v -1.997694 2.118318 1.689790
v -2.045088 2.118318 -1.634284
v -2.213616 2.118318 1.692865
v -2.261009 2.118318 -1.631205
v 2.170357 1.512604 1.740678
v 2.155721 2.247057 1.020371
v 2.106260 1.512604 1.741979
v 2.091625 2.247057 1.021672
v 2.168157 1.406375 1.632408
v 2.153521 2.140829 0.912101
v 2.104061 1.406375 1.633709
v 2.089425 2.140829 0.913402
v 2.095762 1.362765 -1.655166
v 2.111529 2.214165 -0.879189
v 2.031666 1.362765 -1.653865
v 2.047431 2.214165 -0.877887
v 2.093485 1.464962 -1.767251
v 2.109251 2.316361 -0.991273
v 2.029387 1.464962 -1.765949
v 2.045154 2.316361 -0.989972
v -2.076932 1.515669 1.763705
v -2.091568 2.250123 1.043398
v -2.141029 1.515669 1.765006
v -2.155665 2.250123 1.044699
v -2.079133 1.409440 1.655435
v -2.093769 2.143894 0.935128
v -2.143230 1.409440 1.656737
v -2.157866 2.143894 0.936430
v 2.040713 2.422934 1.673530
v -2.109153 2.422934 1.675626
v 2.040822 2.422934 1.889470
v -2.109043 2.422934 1.891567
v 2.040713 2.119656 1.673530
v -2.109153 2.119656 1.675626
v 2.040822 2.119656 1.889470
v -2.109043 2.119656 1.891567
v 2.181398 1.362963 1.730783
v 1.241114 2.321517 1.731255
v 2.181430 1.362963 1.794891
v 1.241146 2.321517 1.795363
v 2.073105 1.256734 1.730837
v 1.132821 2.215288 1.731309
v 2.073137 1.256734 1.794945
v 1.132854 2.215288 1.795418
v -1.980304 1.200219 1.708596
v -1.075715 2.192527 1.708135
v -1.980271 1.200219 1.772704
v -1.075680 2.192527 1.772248
v -2.092410 1.302415 1.708649
v -1.187820 2.294723 1.708193
v -2.092376 1.302415 1.772762
v -1.187786 2.294723 1.772301
v -2.114691 3.015607 1.745540
v -2.129326 2.281153 1.025233
v -2.178788 3.015607 1.746841
v -2.193423 2.281153 1.026534
v -2.116891 3.121836 1.637270
v -2.131527 2.387382 0.916963
v -2.180989 3.121836 1.638572
v -2.195624 2.387382 0.918265
v -2.114072 3.224108 -1.643062
v -2.098305 2.372709 -0.867084
v -2.178169 3.224108 -1.641760
v -2.162402 2.372709 -0.865783
v -2.116349 3.121912 -1.755146
v -2.100582 2.270513 -0.979169
v -2.180446 3.121912 -1.753845
v -2.164679 2.270513 -0.977867
v 2.048298 -1.241853 -1.899334
v -2.234468 -1.241854 -1.897171
v 2.048429 -1.241853 -1.640214
v -2.234337 -1.241854 -1.638051
v 2.048299 -1.545131 -1.899334
v -2.234468 -1.545132 -1.897171
v 2.048429 -1.545131 -1.640214
v -2.234337 -1.545132 -1.638051
v 2.050086 -1.241854 1.645223
v -2.232680 -1.241854 1.647386
v 2.050217 -1.241854 1.904343
v -2.232549 -1.241854 1.906506
v 2.050087 -1.545132 1.645223
v -2.232680 -1.545132 1.647386
v 2.050217 -1.545132 1.904343
v -2.232549 -1.545132 1.906506
v -2.114667 1.264500 -1.640754
v -2.098900 2.115899 -0.864776
v -2.178764 1.264500 -1.639452
v -2.162997 2.115899 -0.863475
v -2.116944 1.366696 -1.752838
v -2.101177 2.218095 -0.976861
v -2.181041 1.366696 -1.751537
v -2.165275 2.218095 -0.975560
vn 1.0000 -0.0000 -0.0005
vn 0.0005 -0.0000 1.0000
vn -1.0000 -0.0000 0.0005
vn -0.0005 -0.0000 -1.0000
vn -0.0000 -1.0000 -0.0000
vn -0.0000 1.0000 -0.0000
vn 0.7139 0.7003 -0.0004
vn -0.7138 -0.7003 0.0003
vn 0.7003 -0.7139 -0.0004
vn -0.7003 0.7138 0.0004
vn 0.7390 -0.6737 -0.0004
vn -0.7390 0.6737 0.0004
vn -0.6737 -0.7390 0.0004
vn 0.6737 0.7390 -0.0004
vn -0.9999 -0.0000 0.0143
vn 0.9999 -0.0000 -0.0143
vn 0.0142 -0.0000 0.9999
vn -0.0143 -0.0000 -0.9999
vn 0.0143 -0.0000 0.9999
vn 0.0145 0.7003 0.7137
vn -0.9998 -0.0000 0.0203
vn -0.0145 -0.7003 -0.7137
vn 0.9998 -0.0000 -0.0203
vn 0.0142 -0.7138 0.7002
vn -0.0142 0.7139 -0.7001
vn 0.0150 -0.6737 0.7389
vn -0.0150 0.6737 -0.7389
vn -0.0137 -0.7390 -0.6735
vn 0.0137 0.7390 0.6735
vn 0.0142 -0.7139 0.7001
vn -0.7139 -0.7002 0.0004
vn -0.7003 0.7139 0.0004
vn -0.6737 -0.7390 0.0003
vn 0.6737 0.7390 -0.0003
vn 0.0145 -0.7003 0.7137
vn -0.0145 0.7003 -0.7137
vn 0.0142 0.7139 0.7001
vn -0.0142 -0.7139 -0.7001
vn 0.0150 0.6737 0.7388
vn -0.0150 -0.6737 -0.7388
vn -0.0137 0.7390 -0.6735
vn 0.0137 -0.7390 0.6735
vn 0.0137 0.7390 0.6736
vt 3.375434 1.764854
vt -2.823455 1.764854
vt -2.823455 1.653361
vt 3.375434 1.653360
vt -2.823455 1.541867
vt 3.375434 1.541867
vt -2.823455 1.430373
vt 3.375434 1.430373
vt -2.823455 1.318880
vt 3.375434 1.318880
vt 0.339252 -0.623067
vt 0.339252 -0.511573
vt 0.227759 -0.511573
vt 0.227759 -0.623067
vt 0.339252 -0.734560
vt 0.227759 -0.734560
vt -2.823455 1.207386
vt 3.375434 1.207386
vt -2.823455 1.095893
vt 3.375434 1.095892
vt -2.823455 0.984399
vt 3.375434 0.984399
vt -2.823455 0.872906
vt 3.375434 0.872905
vt -1.489814 -1.036933
vt -1.489814 -0.925440
vt -1.601308 -0.925440
vt -1.601308 -1.036933
vt -1.378321 -1.036933
vt -1.378321 -0.925440
vt -2.823455 0.761412
vt 3.375434 0.761412
vt 3.375434 0.761412
vt -2.823455 0.649919
vt 3.375434 0.649919
vt -2.823455 0.538425
vt 3.375434 0.538425
vt -2.823455 0.538425
vt -2.823454 0.426932
vt 3.375434 0.426932
vt 0.450745 -0.623067
vt 0.450745 -0.511573
vt 0.450745 -0.734560
vt 3.375434 2.210828
vt -2.823455 2.210828
vt -2.823455 2.099334
vt 3.375434 2.099334
vt -2.823455 1.987841
vt 3.375434 1.987841
vt -2.823455 1.876347
vt 3.375434 1.876347
vt -1.489814 -0.925440
vt -1.489814 -0.813946
vt -1.601308 -0.813946
vt -1.601308 -0.925440
vt -1.378321 -0.925440
vt -1.378321 -0.813946
vt -1.297848 -0.734560
vt -2.823454 -0.734560
vt -2.823454 -0.813946
vt -1.297848 -0.813946
vt -1.297848 -0.400080
vt -2.823455 -0.400080
vt -2.823455 -0.511573
vt -1.297848 -0.511573
vt 0.227759 -0.511573
vt -1.297848 -0.590960
vt 0.227759 -0.590960
vt -1.297848 -0.511573
vt -2.823454 -0.511573
vt -2.823454 -0.623066
vt -1.297848 -0.623066
vt 0.421149 0.188915
vt 0.532643 0.188915
vt 0.532643 0.268301
vt 0.421149 0.268301
vt 0.421149 0.109529
vt 0.532643 0.109529
vt 0.401253 -0.327799
vt -0.002385 -0.327799
vt -0.002385 -0.351367
vt 0.401253 -0.351367
vt 0.401253 -0.216263
vt -0.002385 -0.216263
vt -0.002385 -0.272031
vt 0.401253 -0.272031
vt -0.002385 -0.374935
vt 0.401253 -0.374935
vt 0.401253 -0.272031
vt -0.002385 -0.272031
vt -0.002385 -0.327799
vt 0.401253 -0.327799
vt -1.378321 -1.120338
vt -1.322553 -1.120338
vt -1.322553 -1.096769
vt -1.378321 -1.096769
vt -1.378321 -1.143906
vt -1.322553 -1.143906
vt 0.491245 0.426932
vt -0.002385 0.426932
vt -0.002385 0.403363
vt 0.491245 0.403363
vt 0.417928 -0.749732
vt -0.075701 -0.749732
vt -0.075701 -0.805500
vt 0.417928 -0.805500
vt -0.002385 0.379795
vt 0.491245 0.379795
vt -0.075702 -0.861268
vt 0.417928 -0.861268
vt -1.378321 -0.837515
vt -1.322553 -0.837515
vt -1.322553 -0.813947
vt -1.378321 -0.813947
vt -1.378321 -0.861083
vt -1.322553 -0.861083
vt -1.322553 -0.837515
vt -1.378321 -0.837515
vt -0.075702 -0.972719
vt -1.297848 -0.972719
vt -1.297848 -1.052105
vt -0.075702 -1.052105
vt -0.075702 -0.749732
vt -1.297848 -0.749732
vt -1.297848 -0.861226
vt -0.075702 -0.861226
vt -2.823455 -1.036933
vt -2.823455 -1.116320
vt -1.601308 -1.116320
vt -2.823455 -0.925440
vt 0.421149 -0.128630
vt 0.532643 -0.128630
vt 0.532643 -0.049244
vt 0.421149 -0.049244
vt 0.421149 -0.208016
vt 0.532643 -0.208016
vt -0.002385 -0.019042
vt -1.248990 -0.019042
vt -1.248990 -0.105777
vt -0.002385 -0.105777
vt -0.002385 0.426932
vt -1.248990 0.426932
vt -1.248990 0.315438
vt -0.002385 0.315438
vt -1.248990 -0.192513
vt -0.002385 -0.192513
vt -1.248990 0.203945
vt -0.002385 0.203945
vt 0.401253 -0.398257
vt 0.512746 -0.398257
vt 0.512746 -0.311522
vt 0.401253 -0.311522
vt 0.417928 -0.948003
vt 0.529422 -0.948003
vt 0.529422 -0.861268
vt 0.417928 -0.861268
vt -0.002385 -0.209561
vt -1.248990 -0.209561
vt -1.248990 -0.295773
vt -0.002385 -0.295773
vt -1.248990 0.092451
vt -0.002385 0.092451
vt -0.002385 -0.295774
vt -1.248990 -0.295774
vt -1.248990 -0.381986
vt -0.002385 -0.381986
vt 0.417928 -1.034216
vt 0.529422 -1.034216
vt 0.529422 -0.948003
vt 0.417928 -0.948003
vt 0.417928 -1.120428
vt 0.529422 -1.120428
vt -1.297848 -1.131492
vt -0.075702 -1.131492
vt -1.601308 -1.116320
vt -2.823455 -1.116320
vt -2.823455 -1.195706
vt -1.601308 -1.195706
vt -2.823455 -0.925440
vt 0.302522 -1.163725
vt 0.414016 -1.163725
vt 0.414016 -1.084339
vt 0.302522 -1.084339
vt 0.450745 -0.590960
vt 0.562239 -0.590960
vt 0.562239 -0.511573
vt 0.450745 -0.511573
vt 0.375839 -0.374935
vt -0.002385 -0.398504
vt 0.375839 -0.398504
vt 0.302523 -1.084339
vt -0.075702 -1.084339
vt -0.075702 -1.140106
vt 0.302523 -1.140106
vt -0.919624 -1.187260
vt -1.297848 -1.187260
vt -1.297848 -1.210828
vt -0.919624 -1.210828
vt -0.919624 -1.131492
vt -1.378321 -0.884652
vt -1.322553 -0.884652
vt -1.322553 -0.861084
vt -1.378321 -0.861084
vt -1.378321 -0.908221
vt -1.322553 -0.908221
vt -1.322553 -0.884652
vt -1.378321 -0.884652
vt 0.421150 -0.074852
vt -0.002385 -0.074852
vt -0.002385 -0.098421
vt 0.421150 -0.098421
vt 0.421150 0.268302
vt -0.002385 0.268302
vt -0.002385 0.212534
vt 0.421150 0.212534
vt -0.002385 -0.121989
vt 0.421150 -0.121989
vt 0.421150 0.212534
vt -0.002385 0.212534
vt -0.002385 0.156766
vt 0.421150 0.156766
vt -1.378321 -0.931789
vt -1.322553 -0.931789
vt -1.378321 -0.955358
vt -1.322553 -0.955358
vt -0.541400 -1.187260
vt -0.541400 -1.210828
vt -0.541400 -1.131492
vt -0.163176 -1.187260
vt -0.163176 -1.210828
vt -0.163176 -1.131492
vt -1.378321 -0.978927
vt -1.322553 -0.978927
vt -1.378321 -1.002495
vt -1.322553 -1.002495
vt -1.297848 -0.670346
vt 0.227759 -0.670346
vt -1.297848 -0.749732
vt 0.227759 -0.749732
vt 0.227759 -0.400080
vt 0.421149 0.030143
vt 0.532643 0.030143
vt 0.491245 0.379795
vt -0.002385 0.379795
vt -0.002385 0.356226
vt 0.491245 0.356226
vt 0.417928 -0.861268
vt -0.075701 -0.861268
vt -0.075701 -0.917036
vt 0.417928 -0.917036
vt 0.491245 0.315438
vt -0.002385 0.315438
vt -0.002385 0.291870
vt 0.491245 0.291870
vt -0.075701 -0.972803
vt 0.417928 -0.972803
vt -1.378321 -1.026063
vt -1.322553 -1.026063
vt -1.378321 -1.049632
vt -1.322553 -1.049632
vt 0.491245 0.339007
vt -0.002385 0.339007
vt -0.075701 -1.028571
vt 0.417928 -1.028571
vt -0.002385 0.268301
vt 0.491245 0.268301
vt -0.075701 -1.084339
vt 0.417928 -1.084339
vt -1.378321 -1.073201
vt -1.322553 -1.073201
vt 0.227759 -0.455848
vt 0.227759 -0.479416
vt 0.605983 -0.479416
vt 0.605983 -0.455848
vt -0.075702 -1.195874
vt 0.302523 -1.195874
vt 0.227759 -0.502984
vt 0.605983 -0.502984
vt 0.227759 -0.455847
vt 0.605983 -0.455847
vt 0.605983 -0.400080
vt 0.506513 -0.614528
vt 0.506513 -0.590960
vt 0.450745 -0.590960
vt 0.450745 -0.614528
vt 0.506513 -0.638096
vt 0.450745 -0.638096
vt -0.002385 -0.145558
vt 0.421150 -0.145558
vt -0.002385 0.100998
vt 0.421150 0.100998
vt -0.002385 -0.145558
vt -0.002385 -0.169126
vt 0.421150 -0.169126
vt 0.421150 -0.145558
vt -0.002385 0.092451
vt -0.002385 0.036684
vt 0.421150 0.036684
vt 0.421150 0.092451
vt 0.506513 -0.661665
vt 0.450745 -0.661665
vt 0.506513 -0.685233
vt 0.450745 -0.685233
vt -2.823455 -0.019042
vt -2.823455 -0.114301
vt -1.248990 -0.114302
vt -1.248990 0.426932
vt -2.823455 0.426932
vt -2.823455 0.315439
vt -1.248990 -0.114301
vt -2.823455 -0.114301
vt -2.823455 -0.209561
vt -2.823455 0.203945
vt 0.512746 -0.216263
vt 0.401253 -0.216263
vt -1.601308 -1.132193
vt -1.489814 -1.132193
vt -1.248990 -0.209561
vt -2.823454 -0.209561
vt -2.823454 -0.304820
vt -1.248990 -0.304820
vt -1.248990 0.203945
vt -2.823455 0.203945
vt -2.823455 0.092452
vt -1.248990 -0.400080
vt -1.378321 -1.132193
vt 0.417928 -0.844992
vt 0.529422 -0.844992
vt 0.529422 -0.749732
vt 0.421150 -0.169126
vt -0.002385 -0.169126
vt -0.002385 -0.192695
vt 0.421150 -0.192695
vt -0.002385 -0.019084
vt 0.421150 -0.019084
vt -0.002385 -0.216263
vt 0.421150 -0.216263
vt -0.002385 -0.074852
vt 0.421150 -0.074852
vt 0.450745 -0.708801
vt 0.506513 -0.708801
vt 0.450745 -0.732370
vt 0.506513 -0.732370
s 0
usemtl Wood2
f 1/1/1 2/2/1 4/3/1 3/4/1
f 3/4/2 4/3/2 8/5/2 7/6/2
f 7/6/3 8/5/3 6/7/3 5/8/3
f 5/8/4 6/7/4 2/9/4 1/10/4
f 3/11/5 7/12/5 5/13/5 1/14/5
f 8/15/6 4/11/6 2/14/6 6/16/6
f 9/10/1 10/9/1 12/17/1 11/18/1
f 11/18/2 12/17/2 16/19/2 15/20/2
f 15/20/3 16/19/3 14/21/3 13/22/3
f 13/22/4 14/21/4 10/23/4 9/24/4
f 11/25/5 15/26/5 13/27/5 9/28/5
f 16/29/6 12/30/6 10/26/6 14/25/6
f 17/24/1 18/23/1 20/31/1 19/32/1
f 19/33/2 20/31/2 24/34/2 23/35/2
f 23/35/3 24/34/3 22/36/3 21/37/3
f 21/37/4 22/38/4 18/39/4 17/40/4
f 19/41/5 23/42/5 21/12/5 17/11/5
f 24/43/6 20/41/6 18/11/6 22/15/6
f 25/44/1 26/45/1 28/46/1 27/47/1
f 27/47/2 28/46/2 32/48/2 31/49/2
f 31/49/3 32/48/3 30/50/3 29/51/3
f 29/51/4 30/50/4 26/2/4 25/1/4
f 27/52/5 31/53/5 29/54/5 25/55/5
f 32/56/6 28/57/6 26/53/6 30/52/6
f 33/58/6 34/59/6 36/60/6 35/61/6
f 35/62/2 36/63/2 40/64/2 39/65/2
f 39/66/5 40/65/5 38/67/5 37/68/5
f 37/69/4 38/70/4 34/71/4 33/72/4
f 35/73/1 39/74/1 37/75/1 33/76/1
f 40/77/3 36/78/3 34/74/3 38/73/3
f 41/79/7 42/80/7 44/81/7 43/82/7
f 43/83/2 44/84/2 48/85/2 47/86/2
f 47/82/8 48/81/8 46/87/8 45/88/8
f 45/89/4 46/90/4 42/91/4 41/92/4
f 43/93/9 47/94/9 45/95/9 41/96/9
f 48/97/10 44/98/10 42/94/10 46/93/10
f 49/99/11 50/100/11 52/101/11 51/102/11
f 51/103/2 52/104/2 56/105/2 55/106/2
f 55/102/12 56/101/12 54/107/12 53/108/12
f 53/106/4 54/105/4 50/109/4 49/110/4
f 51/111/13 55/112/13 53/113/13 49/114/13
f 56/115/14 52/116/14 50/117/14 54/118/14
f 57/119/6 58/120/6 60/121/6 59/122/6
f 59/123/15 60/124/15 64/125/15 63/126/15
f 63/28/5 64/127/5 62/128/5 61/129/5
f 61/54/16 62/60/16 58/130/16 57/55/16
f 59/131/17 63/132/17 61/133/17 57/134/17
f 64/135/18 60/136/18 58/132/18 62/131/18
f 65/137/6 66/138/6 68/139/6 67/140/6
f 67/141/15 68/142/15 72/143/15 71/144/15
f 71/140/5 72/139/5 70/145/5 69/146/5
f 69/144/16 70/143/16 66/147/16 65/148/16
f 67/149/17 71/150/17 69/151/17 65/152/17
f 72/153/18 68/154/18 66/155/18 70/156/18
f 73/157/6 74/158/6 76/159/6 75/160/6
f 75/148/15 76/147/15 80/161/15 79/162/15
f 79/163/5 80/164/5 78/165/5 77/166/5
f 77/162/16 78/161/16 74/138/16 73/137/16
f 75/167/19 79/168/19 77/169/19 73/170/19
f 80/171/18 76/172/18 74/168/18 78/167/18
f 81/122/6 82/121/6 84/173/6 83/174/6
f 83/126/15 84/125/15 88/120/15 87/119/15
f 87/175/5 88/176/5 86/177/5 85/178/5
f 85/27/16 86/179/16 82/127/16 81/28/16
f 83/180/17 87/181/17 85/182/17 81/183/17
f 88/184/18 84/185/18 82/186/18 86/187/18
f 89/188/20 90/87/20 92/189/20 91/190/20
f 91/191/21 92/192/21 96/193/21 95/194/21
f 95/195/22 96/196/22 94/197/22 93/198/22
f 93/199/23 94/173/23 90/196/23 89/195/23
f 91/200/24 95/201/24 93/202/24 89/203/24
f 96/204/25 92/205/25 90/206/25 94/207/25
f 97/208/26 98/209/26 100/210/26 99/211/26
f 99/212/21 100/213/21 104/214/21 103/215/21
f 103/211/27 104/210/27 102/216/27 101/217/27
f 101/218/23 102/219/23 98/220/23 97/221/23
f 99/222/28 103/223/28 101/205/28 97/204/28
f 104/224/29 100/225/29 98/223/29 102/222/29
f 105/226/20 106/195/20 108/198/20 107/227/20
f 107/228/21 108/199/21 112/195/21 111/226/21
f 111/229/22 112/226/22 110/227/22 109/230/22
f 109/231/23 110/228/23 106/226/23 105/229/23
f 107/232/30 111/233/30 109/225/30 105/224/30
f 112/234/25 108/235/25 106/233/25 110/232/25
f 113/68/6 114/67/6 116/236/6 115/237/6
f 115/72/2 116/71/2 120/59/2 119/58/2
f 119/237/5 120/236/5 118/238/5 117/239/5
f 117/240/4 118/62/4 114/65/4 113/66/4
f 115/241/1 119/242/1 117/78/1 113/77/1
f 120/134/3 116/133/3 114/242/3 118/241/3
f 121/243/7 122/244/7 124/245/7 123/246/7
f 123/247/2 124/248/2 128/249/2 127/250/2
f 127/251/31 128/252/31 126/253/31 125/254/31
f 125/250/4 126/249/4 122/255/4 121/256/4
f 123/257/9 127/258/9 125/235/9 121/234/9
f 128/259/32 124/260/32 122/258/32 126/257/32
f 129/261/11 130/262/11 132/252/11 131/251/11
f 131/256/2 132/255/2 136/263/2 135/264/2
f 135/254/12 136/253/12 134/265/12 133/266/12
f 133/264/4 134/263/4 130/267/4 129/268/4
f 131/269/33 135/270/33 133/260/33 129/259/33
f 136/96/34 132/95/34 130/270/34 134/269/34
f 137/271/35 139/272/35 140/273/35 138/274/35
f 139/193/21 143/275/21 144/276/21 140/194/21
f 143/272/36 141/277/36 142/278/36 144/273/36
f 141/240/23 137/279/23 138/280/23 142/281/23
f 139/282/37 137/283/37 141/284/37 143/285/37
f 144/286/38 142/282/38 138/285/38 140/287/38
f 145/216/39 147/288/39 148/289/39 146/217/39
f 147/220/21 151/290/21 152/291/21 148/221/21
f 151/292/40 149/293/40 150/294/40 152/295/40
f 149/296/23 145/297/23 146/298/23 150/299/23
f 147/300/41 145/286/41 149/287/41 151/301/41
f 152/302/42 150/300/42 146/301/42 148/303/42
f 153/138/6 154/304/6 156/305/6 155/306/6
f 155/307/2 156/308/2 160/309/2 159/143/2
f 159/310/5 160/311/5 158/312/5 157/158/5
f 157/143/4 158/309/4 154/313/4 153/147/4
f 155/152/1 159/151/1 157/314/1 153/315/1
f 160/316/3 156/317/3 154/25/3 158/28/3
f 161/318/6 162/319/6 164/320/6 163/321/6
f 163/322/2 164/323/2 168/324/2 167/161/2
f 167/321/5 168/320/5 166/63/5 165/325/5
f 165/161/4 166/324/4 162/304/4 161/138/4
f 163/317/1 167/326/1 165/29/1 161/25/1
f 168/327/3 164/328/3 162/329/3 166/103/3
f 169/330/26 170/331/26 172/332/26 171/333/26
f 171/298/21 172/297/21 176/334/21 175/335/21
f 175/333/27 176/332/27 174/336/27 173/337/27
f 173/335/23 174/334/23 170/338/23 169/339/23
f 171/340/28 175/341/28 173/302/28 169/303/28
f 176/342/43 172/343/43 170/341/43 174/340/43
